<svg width="24" height="24" viewBox="0 0 24 24" fill="none" xmlns="http://www.w3.org/2000/svg">
<path fill-rule="evenodd" clip-rule="evenodd" d="M12.5799 7.3125L12.5799 4.5H11.1736V7.3125H12.5799ZM17.9584 8.71429L19.3647 6.37054L18.1588 5.64703L16.7526 7.99078L17.9584 8.71429ZM4.38906 6.37054L5.79531 8.71429L7.00115 7.99078L5.5949 5.64703L4.38906 6.37054ZM5.01354 13.8757C6.56138 15.8605 9.05334 17.1571 11.8758 17.1571C14.6986 17.1571 17.1908 15.8602 18.7386 13.8751C17.7672 12.6296 16.424 11.655 14.8606 11.1019C15.0516 11.518 15.158 11.9809 15.158 12.4688C15.158 14.2809 13.6889 15.75 11.8768 15.75C10.0646 15.75 8.5955 14.2809 8.5955 12.4688C8.5955 11.9808 8.70202 11.5177 8.89307 11.1015C7.32897 11.6546 5.98518 12.6295 5.01354 13.8757ZM20.1893 13.4773C18.4121 10.8873 15.3466 9.1876 11.8766 9.1875H11.8763C8.40587 9.1875 5.33992 10.8875 3.56278 13.478C3.39833 13.7177 3.39835 14.0338 3.56281 14.2735C5.34002 16.8636 8.40574 18.5633 11.8758 18.5633C15.3462 18.5633 18.4122 16.8633 20.1893 14.2729C20.3538 14.0332 20.3538 13.717 20.1893 13.4773ZM11.8768 14.3438C12.9123 14.3438 13.7518 13.5043 13.7518 12.4688C13.7518 11.4332 12.9123 10.5938 11.8768 10.5938C10.8412 10.5938 10.0018 11.4332 10.0018 12.4688C10.0018 13.5043 10.8412 14.3438 11.8768 14.3438Z" fill="#4145A9"/>
</svg>
