<svg width="45" height="47" viewBox="0 0 45 47" fill="none" xmlns="http://www.w3.org/2000/svg">
<path d="M35.5831 29.0055C34.6605 28.032 33.5477 27.5115 32.3682 27.5115C31.1983 27.5115 30.076 28.0223 29.1154 28.9959L26.1098 32.0321C25.8625 31.8972 25.6152 31.7719 25.3774 31.6466C25.035 31.4731 24.7116 31.3092 24.4358 31.1357C21.6204 29.3236 19.0619 26.962 16.6079 23.9065C15.419 22.3835 14.62 21.1016 14.0399 19.8003C14.8198 19.0774 15.5427 18.3255 16.2465 17.6026C16.5128 17.3327 16.7791 17.0532 17.0454 16.7833C19.0428 14.7591 19.0428 12.1373 17.0454 10.1132L14.4488 7.48173C14.154 7.18292 13.8496 6.87448 13.5643 6.56603C12.9936 5.96842 12.3944 5.35152 11.7762 4.77319C10.8536 3.84785 9.75023 3.35626 8.58985 3.35626C7.42946 3.35626 6.30712 3.84785 5.35599 4.77319C5.34648 4.78283 5.34648 4.78283 5.33696 4.79247L2.1031 8.09862C0.885649 9.33241 0.19132 10.8361 0.0391378 12.5807C-0.189135 15.3953 0.628842 18.0171 1.25659 19.7328C2.79743 23.945 5.09918 27.8488 8.53278 32.0321C12.6988 37.0733 17.7112 41.0542 23.4371 43.8591C25.6247 44.9098 28.5447 46.1532 31.8071 46.3652C32.0068 46.3749 32.2161 46.3845 32.4063 46.3845C34.6034 46.3845 36.4486 45.5845 37.8943 43.9941C37.9039 43.9748 37.9229 43.9651 37.9324 43.9459C38.427 43.3386 38.9977 42.7892 39.5969 42.2012C40.0059 41.806 40.4244 41.3915 40.8334 40.9578C41.775 39.965 42.2696 38.8083 42.2696 37.6227C42.2696 36.4275 41.7655 35.2804 40.8048 34.3166L35.5831 29.0055ZM38.9881 39.1553C38.9786 39.1553 38.9786 39.1649 38.9881 39.1553C38.6172 39.5601 38.2367 39.9264 37.8278 40.3313C37.2095 40.9289 36.5818 41.5554 35.9921 42.259C35.0314 43.3001 33.8996 43.7916 32.4158 43.7916C32.2731 43.7916 32.1209 43.7916 31.9783 43.782C29.1534 43.5989 26.5283 42.4807 24.5594 41.5265C19.176 38.8854 14.4488 35.1359 10.5207 30.3839C7.27728 26.4223 5.10869 22.7595 3.67248 18.8268C2.78792 16.4267 2.46453 14.5567 2.6072 12.7928C2.70232 11.665 3.13033 10.7301 3.91977 9.93002L7.16314 6.64314C7.6292 6.19975 8.12379 5.95878 8.60887 5.95878C9.20809 5.95878 9.69317 6.32506 9.99753 6.6335C10.007 6.64314 10.0166 6.65278 10.0261 6.66242C10.6063 7.21184 11.1579 7.78054 11.7381 8.38779C12.033 8.69624 12.3373 9.00468 12.6417 9.32277L15.2383 11.9542C16.2465 12.9759 16.2465 13.9205 15.2383 14.9423C14.9625 15.2218 14.6961 15.5013 14.4203 15.7712C13.6214 16.6002 12.8604 17.3713 12.033 18.1231C12.0139 18.1424 11.9949 18.152 11.9854 18.1713C11.1674 19.0003 11.3196 19.8099 11.4908 20.3594C11.5003 20.3883 11.5098 20.4172 11.5193 20.4461C12.1947 22.104 13.1458 23.6655 14.5915 25.5258L14.601 25.5355C17.2262 28.8127 19.994 31.367 23.0471 33.3237C23.4371 33.5744 23.8366 33.7768 24.217 33.9696C24.5594 34.1431 24.8828 34.3069 25.1586 34.4804C25.1967 34.4997 25.2347 34.5286 25.2728 34.5479C25.5962 34.7118 25.9005 34.7889 26.2144 34.7889C27.0038 34.7889 27.4984 34.2876 27.6601 34.1238L30.913 30.8273C31.2364 30.4995 31.75 30.1043 32.3492 30.1043C32.9389 30.1043 33.424 30.4803 33.7189 30.808C33.7284 30.8176 33.7284 30.8176 33.7379 30.8273L38.9786 36.1383C39.9583 37.1215 39.9583 38.1336 38.9881 39.1553Z" fill="#D4FFFF"/>
<path d="M24.3216 11.5783C26.8135 12.0024 29.0772 13.1976 30.8844 15.029C32.6915 16.8604 33.8614 19.1545 34.2895 21.6799C34.3941 22.3161 34.9362 22.7594 35.5545 22.7594C35.6306 22.7594 35.6971 22.7498 35.7732 22.7402C36.4771 22.6245 36.9431 21.9498 36.829 21.2365C36.3154 18.1809 34.8887 15.3953 32.7106 13.188C30.5325 10.9807 27.7837 9.53481 24.7686 9.01431C24.0648 8.89864 23.4085 9.37095 23.2848 10.0746C23.1612 10.7782 23.6177 11.4626 24.3216 11.5783Z" fill="#D4FFFF"/>
<path d="M44.9806 20.8606C44.134 15.829 41.7942 11.2505 38.199 7.60701C34.6037 3.96349 30.0858 1.5923 25.1208 0.734438C24.4265 0.609132 23.7702 1.09108 23.6466 1.79472C23.5324 2.508 23.9985 3.17309 24.7023 3.2984C29.1346 4.05987 33.177 6.19008 36.3918 9.43841C39.6066 12.6964 41.6991 16.7929 42.4505 21.2847C42.5552 21.9208 43.0973 22.3642 43.7155 22.3642C43.7916 22.3642 43.8582 22.3546 43.9343 22.345C44.6286 22.2389 45.1042 21.5642 44.9806 20.8606Z" fill="#D4FFFF"/>
</svg>
