<svg width="65" height="65" viewBox="0 0 65 65" fill="none" xmlns="http://www.w3.org/2000/svg">
<g clip-path="url(#clip0_68_214)">
<mask id="mask0_68_214" style="mask-type:luminance" maskUnits="userSpaceOnUse" x="0" y="0" width="66" height="66">
<path d="M0 32.5002C0 50.4496 14.5507 65.0002 32.5001 65.0002C50.4495 65.0002 65.0001 50.4496 65.0001 32.5002C65.0001 14.5508 50.4495 0.000115991 32.5001 0.000115991C14.5507 0.000115991 0 14.5508 0 32.5002Z" fill="white"/>
</mask>
<g mask="url(#mask0_68_214)">
<path d="M0 32.5002C0 50.4496 14.5507 65.0002 32.5001 65.0002C50.4495 65.0002 65.0001 50.4496 65.0001 32.5002C65.0001 14.5508 50.4495 0.000115991 32.5001 0.000115991C14.5507 0.000115991 0 14.5508 0 32.5002Z" fill="url(#paint0_linear_68_214)"/>
</g>
<mask id="mask1_68_214" style="mask-type:luminance" maskUnits="userSpaceOnUse" x="-5" y="-5" width="75" height="74">
<path d="M-4.38013 -4.37966H69.1546V68.8557H-4.38013V-4.37966Z" fill="white"/>
</mask>
<g mask="url(#mask1_68_214)">
<path d="M21.9995 34.8754L25.8555 45.5481C25.8555 45.5481 26.3374 46.5463 26.8539 46.5463C27.3703 46.5463 35.0477 38.559 35.0477 38.559L43.5859 22.0679L22.1372 32.1209L21.9995 34.8754Z" fill="#C8DAEA"/>
</g>
<mask id="mask2_68_214" style="mask-type:luminance" maskUnits="userSpaceOnUse" x="-5" y="-5" width="75" height="74">
<path d="M-4.38013 -4.37966H69.1546V68.8557H-4.38013V-4.37966Z" fill="white"/>
</mask>
<g mask="url(#mask2_68_214)">
<path d="M27.1119 37.6126L26.3716 45.4793C26.3716 45.4793 26.0618 47.8892 28.4717 45.4793C30.8817 43.0693 33.1884 41.2102 33.1884 41.2102" fill="#A9C6D8"/>
</g>
<mask id="mask3_68_214" style="mask-type:luminance" maskUnits="userSpaceOnUse" x="-5" y="-5" width="75" height="74">
<path d="M-4.38013 -4.37966H69.1546V68.8557H-4.38013V-4.37966Z" fill="white"/>
</mask>
<g mask="url(#mask3_68_214)">
<path d="M22.0689 35.2566L14.1381 32.6723C14.1381 32.6723 13.1914 32.2881 13.4955 31.4159C13.5583 31.236 13.6847 31.0831 14.0634 30.819C15.8212 29.5942 46.5921 18.534 46.5921 18.534C46.5921 18.534 47.4611 18.2415 47.9748 18.4359C48.2094 18.5249 48.3593 18.6254 48.4854 18.9923C48.5314 19.1259 48.5578 19.4098 48.5543 19.6924C48.5515 19.8962 48.5267 20.0849 48.5085 20.381C48.3213 23.4051 42.7136 45.9729 42.7136 45.9729C42.7136 45.9729 42.3782 47.2935 41.1759 47.3384C40.7374 47.3549 40.2053 47.266 39.5691 46.7187C37.2101 44.6894 29.0556 39.2093 27.2541 38.0043C27.1521 37.9365 27.1235 37.8481 27.1061 37.7619C27.0808 37.6352 27.2163 37.4771 27.2163 37.4771C27.2163 37.4771 41.415 24.8558 41.7929 23.5316C41.8221 23.4288 41.7122 23.3781 41.5632 23.4225C40.6201 23.7695 24.272 34.0924 22.468 35.2327C22.3625 35.2993 22.0667 35.2564 22.0667 35.2564" fill="white"/>
</g>
</g>
<defs>
<linearGradient id="paint0_linear_68_214" x1="32.5001" y1="65" x2="32.5001" y2="-0.000160983" gradientUnits="userSpaceOnUse">
<stop stop-color="#1D93D2"/>
<stop offset="1" stop-color="#38B0E3"/>
</linearGradient>
<clipPath id="clip0_68_214">
<rect width="65" height="65" fill="white"/>
</clipPath>
</defs>
</svg>
