<svg width="65" height="65" viewBox="0 0 65 65" fill="none" xmlns="http://www.w3.org/2000/svg">
<g clip-path="url(#clip0_68_251)">
<rect width="65" height="65" rx="32.5" fill="#D9D9D9"/>
<path d="M30.2495 0.0998392C22.4777 0.677476 15.3885 3.87323 9.82218 9.31202C2.50044 16.4537 -1.01039 26.5661 0.287421 36.7235C1.9078 49.424 10.8649 60.0015 23.1678 63.7449C32.6801 66.6406 43.2651 64.9227 51.3295 59.1838C61.2394 52.1247 66.3931 40.4144 64.8627 28.4265C63.2423 15.726 54.2852 5.14853 41.9823 1.40515C38.3214 0.287384 34.0529 -0.185228 30.2495 0.0998392ZM32.7326 20.2721C34.398 20.4372 35.2307 20.6997 35.6058 21.1873C35.7033 21.3224 35.8608 21.6524 35.9509 21.9225C36.1459 22.4926 36.1534 23.1453 36.0334 28.0214C35.9584 31.0672 36.0034 32.0049 36.2509 32.6801C36.5435 33.4527 37.1887 33.8053 37.7588 33.5127C38.2764 33.2427 39.4842 31.9149 40.2719 30.7371C42.0948 28.0365 43.2051 25.9435 44.5404 22.7102C44.8105 22.0725 45.1705 21.6524 45.5456 21.5549C45.6957 21.5099 47.8187 21.4724 50.4293 21.4649L55.0429 21.4499L55.433 21.6149C55.9356 21.84 56.1306 22.1326 56.1306 22.6652C56.1306 23.6779 55.0729 25.7559 53.2575 28.299C53.0099 28.6516 52.0722 29.8969 51.1795 31.0747C49.2065 33.6703 48.7789 34.2779 48.4788 34.9081C48.1037 35.7033 48.1938 36.3559 48.7864 37.1286C48.9589 37.3462 49.8292 38.2239 50.7219 39.0791C53.22 41.4721 54.3527 42.7324 55.2754 44.1128C55.9356 45.1105 56.1907 45.8457 56.0856 46.4758C56.0331 46.8209 55.688 47.2335 55.2979 47.436C54.8328 47.6686 54.1202 47.7136 50.1967 47.7661L46.4834 47.8186L45.8832 47.6161C44.3529 47.106 43.3326 46.2583 41.0146 43.5726C39.7318 42.0873 38.779 41.3596 38.1189 41.3521C37.5112 41.3521 36.7386 42.1623 36.4085 43.1675C36.1834 43.8427 36.1009 44.3603 36.0334 45.5306C35.9509 46.9109 35.7858 47.2335 34.9381 47.5861C34.6306 47.7211 30.8046 47.7661 29.7919 47.6611C27.7589 47.436 25.876 46.7984 24.008 45.6956C21.2999 44.1053 19.642 42.6799 17.8641 40.4144C14.7734 36.4684 12.6654 33.1077 10.1072 28.0365C9.11701 26.0635 7.95424 23.5129 7.76669 22.9052C7.57915 22.2751 7.84921 21.7575 8.46436 21.5624C8.67441 21.4949 9.84468 21.4574 12.5453 21.4199L16.3337 21.3824L16.7763 21.5474C17.474 21.8175 17.7666 22.1626 18.2392 23.3103C18.6443 24.2781 20.8273 28.6591 21.5099 29.8819C22.2076 31.1197 22.9503 32.1549 23.5879 32.7701C24.3756 33.5428 24.7282 33.7303 25.2833 33.6853C25.756 33.6403 25.8835 33.5353 26.1761 32.8976C26.8887 31.3597 27.0012 26.161 26.3636 24.1205C25.996 22.9577 25.4484 22.5151 23.933 22.1926C23.6705 22.1326 23.6705 22.0425 23.9105 21.6899C24.4957 20.8497 25.5384 20.4447 27.5264 20.2796C28.6141 20.1896 31.8399 20.1821 32.7326 20.2721Z" fill="#45668E"/>
</g>
<defs>
<clipPath id="clip0_68_251">
<rect width="65" height="65" fill="white"/>
</clipPath>
</defs>
</svg>
