<svg width="65" height="65" viewBox="0 0 65 65" fill="none" xmlns="http://www.w3.org/2000/svg">
<g clip-path="url(#clip0_68_235)">
<path d="M32.5 65C50.4492 65 65 50.4492 65 32.5C65 14.5508 50.4492 0 32.5 0C14.5508 0 0 14.5508 0 32.5C0 50.4492 14.5508 65 32.5 65Z" fill="#25D366"/>
<path fill-rule="evenodd" clip-rule="evenodd" d="M33.5712 50.5815H33.5632C30.3288 50.5804 27.1507 49.7688 24.3279 48.2292L14.0833 50.9166L16.8249 40.9023C15.1337 37.9715 14.2439 34.647 14.2452 31.2409C14.2495 20.5856 22.9189 11.9166 33.5709 11.9166C38.7407 11.9189 43.593 13.9315 47.2416 17.5844C50.8903 21.2371 52.8985 26.0925 52.8965 31.2562C52.8923 41.9091 44.2263 50.5772 33.5712 50.5815ZM24.8027 44.7307L25.3892 45.0787C27.8554 46.5423 30.6824 47.3166 33.5647 47.3177H33.5712C42.4243 47.3177 49.63 40.1119 49.6335 31.2551C49.6353 26.9631 47.9661 22.9275 44.9335 19.8913C41.9008 16.8552 37.8678 15.1822 33.5774 15.1807C24.7174 15.1807 17.5117 22.3858 17.5082 31.2421C17.507 34.2772 18.3562 37.2329 19.964 39.7903L20.346 40.398L18.7233 46.3253L24.8027 44.7307ZM42.6459 35.4168C42.9827 35.5796 43.2102 35.6896 43.3073 35.8517C43.4279 36.053 43.4279 37.0199 43.0257 38.1479C42.6231 39.276 40.694 40.3054 39.7662 40.4439C38.9344 40.5684 37.8815 40.6202 36.7248 40.2526C36.0235 40.0301 35.1242 39.733 33.972 39.2355C29.4452 37.2807 26.3859 32.8932 25.8076 32.0639C25.7671 32.0058 25.7388 31.9652 25.723 31.9441L25.7192 31.9389C25.4637 31.598 23.7513 29.3133 23.7513 26.949C23.7513 24.7246 24.8439 23.5588 25.3468 23.0222C25.3813 22.9855 25.413 22.9516 25.4413 22.9206C25.884 22.4372 26.4071 22.3162 26.729 22.3162C27.0509 22.3162 27.3732 22.3192 27.6546 22.3334C27.6892 22.3352 27.7254 22.3349 27.7626 22.3346C28.044 22.333 28.3949 22.331 28.741 23.1623C28.8741 23.4822 29.069 23.9565 29.2744 24.4568C29.6899 25.4683 30.1491 26.5861 30.2298 26.7477C30.3506 26.9895 30.431 27.2714 30.27 27.5937C30.2459 27.642 30.2236 27.6877 30.2022 27.7313C30.0812 27.9781 29.9924 28.1596 29.7871 28.3993C29.7065 28.4934 29.6231 28.595 29.5397 28.6965C29.3736 28.8988 29.2075 29.1012 29.0629 29.2452C28.8211 29.486 28.5694 29.7472 28.8511 30.2307C29.1328 30.7141 30.102 32.2954 31.5374 33.5759C33.0806 34.9522 34.4218 35.534 35.1015 35.8288C35.2343 35.8865 35.3418 35.9331 35.4207 35.9726C35.9033 36.2143 36.185 36.1738 36.4668 35.8517C36.7485 35.5294 37.6739 34.4416 37.9957 33.9583C38.3176 33.4751 38.6396 33.5555 39.0821 33.7166C39.5249 33.878 41.8989 35.0459 42.3818 35.2877C42.4761 35.3348 42.5642 35.3774 42.6459 35.4168Z" fill="#FDFDFD"/>
</g>
<defs>
<clipPath id="clip0_68_235">
<rect width="65" height="65" fill="white"/>
</clipPath>
</defs>
</svg>
